<mxfile host="app.diagrams.net" modified="2022-07-29T04:12:45.261Z" agent="5.0 (Windows)" etag="TvY24asLyrfrOt-oxTjl" version="20.1.1" type="github">
  <diagram id="oM9Zo1x3iO9PGYnBp63X" name="Page-1">
    <mxGraphModel dx="2170" dy="1195" grid="1" gridSize="10" guides="1" tooltips="1" connect="1" arrows="1" fold="1" page="1" pageScale="1" pageWidth="827" pageHeight="1169" math="0" shadow="0">
      <root>
        <mxCell id="0" />
        <mxCell id="1" parent="0" />
        <mxCell id="coLWPYUIXOKxR95cU1zw-77" value="&lt;h1&gt;&lt;font style=&quot;font-size: 18px;&quot;&gt;&lt;font style=&quot;font-size: 14px;&quot;&gt;Workshop 9 Individual Submission&lt;/font&gt;&lt;br&gt;&lt;/font&gt;&lt;/h1&gt;&lt;div&gt;Jeel Satishkumar Patel&lt;/div&gt;&lt;div&gt;Student ID: 167984210&lt;/div&gt;&lt;div&gt;Seneca Mail: jpatel363@myseneca.ca&lt;br&gt;&lt;/div&gt;" style="text;html=1;strokeColor=none;fillColor=none;spacing=5;spacingTop=-20;whiteSpace=wrap;overflow=hidden;rounded=0;" vertex="1" parent="1">
          <mxGeometry x="30" y="30" width="280" height="100" as="geometry" />
        </mxCell>
        <mxCell id="coLWPYUIXOKxR95cU1zw-78" value="" style="group" vertex="1" connectable="0" parent="1">
          <mxGeometry x="96" y="180" width="635" height="2020" as="geometry" />
        </mxCell>
        <mxCell id="coLWPYUIXOKxR95cU1zw-1" value="&lt;div&gt;Start&lt;/div&gt;" style="ellipse;whiteSpace=wrap;html=1;" vertex="1" parent="coLWPYUIXOKxR95cU1zw-78">
          <mxGeometry x="244" width="80" height="40" as="geometry" />
        </mxCell>
        <mxCell id="coLWPYUIXOKxR95cU1zw-3" value="End" style="ellipse;whiteSpace=wrap;html=1;" vertex="1" parent="coLWPYUIXOKxR95cU1zw-78">
          <mxGeometry x="277" y="1980" width="80" height="40" as="geometry" />
        </mxCell>
        <mxCell id="coLWPYUIXOKxR95cU1zw-4" value="Declare time, player, distance, battery, input, outputValue=0, lifeHours=4, distanceSteps=0" style="rounded=0;whiteSpace=wrap;html=1;" vertex="1" parent="coLWPYUIXOKxR95cU1zw-78">
          <mxGeometry x="194" y="80" width="180" height="80" as="geometry" />
        </mxCell>
        <mxCell id="coLWPYUIXOKxR95cU1zw-67" value="" style="edgeStyle=orthogonalEdgeStyle;rounded=0;orthogonalLoop=1;jettySize=auto;html=1;" edge="1" parent="coLWPYUIXOKxR95cU1zw-78" source="coLWPYUIXOKxR95cU1zw-1" target="coLWPYUIXOKxR95cU1zw-4">
          <mxGeometry relative="1" as="geometry" />
        </mxCell>
        <mxCell id="coLWPYUIXOKxR95cU1zw-5" value="&lt;div&gt;Call black box &#39;Move&#39;;&lt;/div&gt;&lt;div&gt;unit+=1&lt;br&gt;&lt;/div&gt;" style="rounded=0;whiteSpace=wrap;html=1;" vertex="1" parent="coLWPYUIXOKxR95cU1zw-78">
          <mxGeometry x="211" y="200" width="146" height="60" as="geometry" />
        </mxCell>
        <mxCell id="coLWPYUIXOKxR95cU1zw-68" style="edgeStyle=orthogonalEdgeStyle;rounded=0;orthogonalLoop=1;jettySize=auto;html=1;entryX=0.5;entryY=0;entryDx=0;entryDy=0;" edge="1" parent="coLWPYUIXOKxR95cU1zw-78" source="coLWPYUIXOKxR95cU1zw-4" target="coLWPYUIXOKxR95cU1zw-5">
          <mxGeometry relative="1" as="geometry" />
        </mxCell>
        <mxCell id="coLWPYUIXOKxR95cU1zw-6" value="&lt;div&gt;time += 2;&lt;/div&gt;&lt;div&gt;battery--;&lt;/div&gt;&lt;div&gt;distanceSteps += 5&lt;br&gt;&lt;/div&gt;" style="rounded=0;whiteSpace=wrap;html=1;" vertex="1" parent="coLWPYUIXOKxR95cU1zw-78">
          <mxGeometry x="194" y="300" width="180" height="80" as="geometry" />
        </mxCell>
        <mxCell id="coLWPYUIXOKxR95cU1zw-69" style="edgeStyle=orthogonalEdgeStyle;rounded=0;orthogonalLoop=1;jettySize=auto;html=1;entryX=0.5;entryY=0;entryDx=0;entryDy=0;" edge="1" parent="coLWPYUIXOKxR95cU1zw-78" source="coLWPYUIXOKxR95cU1zw-5" target="coLWPYUIXOKxR95cU1zw-6">
          <mxGeometry relative="1" as="geometry" />
        </mxCell>
        <mxCell id="coLWPYUIXOKxR95cU1zw-8" value="Call ExploreRoom A" style="rounded=0;whiteSpace=wrap;html=1;" vertex="1" parent="coLWPYUIXOKxR95cU1zw-78">
          <mxGeometry y="710" width="120" height="60" as="geometry" />
        </mxCell>
        <mxCell id="coLWPYUIXOKxR95cU1zw-9" value="Call ExploreRoom B" style="rounded=0;whiteSpace=wrap;html=1;" vertex="1" parent="coLWPYUIXOKxR95cU1zw-78">
          <mxGeometry x="224" y="710" width="120" height="60" as="geometry" />
        </mxCell>
        <mxCell id="coLWPYUIXOKxR95cU1zw-10" value="No room to explore!" style="rounded=0;whiteSpace=wrap;html=1;" vertex="1" parent="coLWPYUIXOKxR95cU1zw-78">
          <mxGeometry x="460" y="710" width="120" height="60" as="geometry" />
        </mxCell>
        <mxCell id="coLWPYUIXOKxR95cU1zw-11" value="What value is returned?" style="rhombus;whiteSpace=wrap;html=1;" vertex="1" parent="coLWPYUIXOKxR95cU1zw-78">
          <mxGeometry x="196" y="540" width="176" height="90" as="geometry" />
        </mxCell>
        <mxCell id="coLWPYUIXOKxR95cU1zw-71" value="" style="edgeStyle=orthogonalEdgeStyle;rounded=0;orthogonalLoop=1;jettySize=auto;html=1;" edge="1" parent="coLWPYUIXOKxR95cU1zw-78" source="coLWPYUIXOKxR95cU1zw-12" target="coLWPYUIXOKxR95cU1zw-11">
          <mxGeometry relative="1" as="geometry" />
        </mxCell>
        <mxCell id="coLWPYUIXOKxR95cU1zw-12" value="&lt;div&gt;Call black boxes &#39;Process&#39;,&lt;/div&gt;&lt;div&gt;&#39;CheckRoom&#39;; Get a random number from &#39;RandomAssign&#39;&lt;/div&gt;" style="rounded=0;whiteSpace=wrap;html=1;" vertex="1" parent="coLWPYUIXOKxR95cU1zw-78">
          <mxGeometry x="194" y="420" width="180" height="70" as="geometry" />
        </mxCell>
        <mxCell id="coLWPYUIXOKxR95cU1zw-70" style="edgeStyle=orthogonalEdgeStyle;rounded=0;orthogonalLoop=1;jettySize=auto;html=1;entryX=0.5;entryY=0;entryDx=0;entryDy=0;" edge="1" parent="coLWPYUIXOKxR95cU1zw-78" source="coLWPYUIXOKxR95cU1zw-6" target="coLWPYUIXOKxR95cU1zw-12">
          <mxGeometry relative="1" as="geometry" />
        </mxCell>
        <mxCell id="coLWPYUIXOKxR95cU1zw-19" value="" style="endArrow=classic;html=1;rounded=0;exitX=0;exitY=0.5;exitDx=0;exitDy=0;entryX=0.5;entryY=0;entryDx=0;entryDy=0;" edge="1" parent="coLWPYUIXOKxR95cU1zw-78" source="coLWPYUIXOKxR95cU1zw-11" target="coLWPYUIXOKxR95cU1zw-8">
          <mxGeometry relative="1" as="geometry">
            <mxPoint x="230" y="640" as="sourcePoint" />
            <mxPoint x="330" y="640" as="targetPoint" />
            <Array as="points">
              <mxPoint x="60" y="585" />
            </Array>
          </mxGeometry>
        </mxCell>
        <mxCell id="coLWPYUIXOKxR95cU1zw-20" value="A" style="edgeLabel;resizable=0;html=1;align=center;verticalAlign=middle;" connectable="0" vertex="1" parent="coLWPYUIXOKxR95cU1zw-19">
          <mxGeometry relative="1" as="geometry" />
        </mxCell>
        <mxCell id="coLWPYUIXOKxR95cU1zw-21" value="" style="endArrow=classic;html=1;rounded=0;exitX=0.5;exitY=1;exitDx=0;exitDy=0;entryX=0.5;entryY=0;entryDx=0;entryDy=0;" edge="1" parent="coLWPYUIXOKxR95cU1zw-78" source="coLWPYUIXOKxR95cU1zw-11" target="coLWPYUIXOKxR95cU1zw-9">
          <mxGeometry relative="1" as="geometry">
            <mxPoint x="230" y="640" as="sourcePoint" />
            <mxPoint x="330" y="640" as="targetPoint" />
          </mxGeometry>
        </mxCell>
        <mxCell id="coLWPYUIXOKxR95cU1zw-22" value="B" style="edgeLabel;resizable=0;html=1;align=center;verticalAlign=middle;" connectable="0" vertex="1" parent="coLWPYUIXOKxR95cU1zw-21">
          <mxGeometry relative="1" as="geometry" />
        </mxCell>
        <mxCell id="coLWPYUIXOKxR95cU1zw-23" value="X" style="endArrow=classic;html=1;rounded=0;exitX=1;exitY=0.5;exitDx=0;exitDy=0;entryX=0.5;entryY=0;entryDx=0;entryDy=0;" edge="1" parent="coLWPYUIXOKxR95cU1zw-78" source="coLWPYUIXOKxR95cU1zw-11" target="coLWPYUIXOKxR95cU1zw-10">
          <mxGeometry relative="1" as="geometry">
            <mxPoint x="230" y="640" as="sourcePoint" />
            <mxPoint x="330" y="640" as="targetPoint" />
            <Array as="points">
              <mxPoint x="520" y="585" />
            </Array>
          </mxGeometry>
        </mxCell>
        <mxCell id="coLWPYUIXOKxR95cU1zw-24" value="X" style="edgeLabel;resizable=0;html=1;align=center;verticalAlign=middle;" connectable="0" vertex="1" parent="coLWPYUIXOKxR95cU1zw-23">
          <mxGeometry relative="1" as="geometry" />
        </mxCell>
        <mxCell id="coLWPYUIXOKxR95cU1zw-25" value="Check time consumed while exploring the room" style="rounded=0;whiteSpace=wrap;html=1;" vertex="1" parent="coLWPYUIXOKxR95cU1zw-78">
          <mxGeometry x="224" y="820" width="120" height="60" as="geometry" />
        </mxCell>
        <mxCell id="coLWPYUIXOKxR95cU1zw-28" style="edgeStyle=orthogonalEdgeStyle;rounded=0;orthogonalLoop=1;jettySize=auto;html=1;entryX=0;entryY=0.5;entryDx=0;entryDy=0;" edge="1" parent="coLWPYUIXOKxR95cU1zw-78" source="coLWPYUIXOKxR95cU1zw-8" target="coLWPYUIXOKxR95cU1zw-25">
          <mxGeometry relative="1" as="geometry">
            <Array as="points">
              <mxPoint x="60" y="850" />
            </Array>
          </mxGeometry>
        </mxCell>
        <mxCell id="coLWPYUIXOKxR95cU1zw-26" style="edgeStyle=orthogonalEdgeStyle;rounded=0;orthogonalLoop=1;jettySize=auto;html=1;entryX=0.5;entryY=0;entryDx=0;entryDy=0;" edge="1" parent="coLWPYUIXOKxR95cU1zw-78" source="coLWPYUIXOKxR95cU1zw-9" target="coLWPYUIXOKxR95cU1zw-25">
          <mxGeometry relative="1" as="geometry" />
        </mxCell>
        <mxCell id="coLWPYUIXOKxR95cU1zw-29" value="is it the end of the hallway?" style="rhombus;whiteSpace=wrap;html=1;" vertex="1" parent="coLWPYUIXOKxR95cU1zw-78">
          <mxGeometry x="186" y="1050" width="196" height="80" as="geometry" />
        </mxCell>
        <mxCell id="coLWPYUIXOKxR95cU1zw-27" style="edgeStyle=orthogonalEdgeStyle;rounded=0;orthogonalLoop=1;jettySize=auto;html=1;entryX=1;entryY=0.5;entryDx=0;entryDy=0;" edge="1" parent="coLWPYUIXOKxR95cU1zw-78" source="coLWPYUIXOKxR95cU1zw-10" target="coLWPYUIXOKxR95cU1zw-25">
          <mxGeometry relative="1" as="geometry">
            <Array as="points">
              <mxPoint x="520" y="850" />
            </Array>
          </mxGeometry>
        </mxCell>
        <mxCell id="coLWPYUIXOKxR95cU1zw-51" style="edgeStyle=orthogonalEdgeStyle;rounded=0;orthogonalLoop=1;jettySize=auto;html=1;" edge="1" parent="coLWPYUIXOKxR95cU1zw-78" source="coLWPYUIXOKxR95cU1zw-31">
          <mxGeometry relative="1" as="geometry">
            <mxPoint x="520" y="1250" as="targetPoint" />
            <Array as="points">
              <mxPoint x="284" y="1250" />
            </Array>
          </mxGeometry>
        </mxCell>
        <mxCell id="coLWPYUIXOKxR95cU1zw-31" value="call process &#39;ChangeDirection&#39;" style="rounded=0;whiteSpace=wrap;html=1;" vertex="1" parent="coLWPYUIXOKxR95cU1zw-78">
          <mxGeometry x="224" y="1170" width="120" height="60" as="geometry" />
        </mxCell>
        <mxCell id="coLWPYUIXOKxR95cU1zw-35" style="edgeStyle=orthogonalEdgeStyle;rounded=0;orthogonalLoop=1;jettySize=auto;html=1;entryX=0.5;entryY=0;entryDx=0;entryDy=0;" edge="1" parent="coLWPYUIXOKxR95cU1zw-78" source="coLWPYUIXOKxR95cU1zw-34" target="coLWPYUIXOKxR95cU1zw-29">
          <mxGeometry relative="1" as="geometry" />
        </mxCell>
        <mxCell id="coLWPYUIXOKxR95cU1zw-34" value="&lt;div&gt;is the battery&lt;/div&gt;&lt;div&gt;less than 4 hours?&lt;/div&gt;" style="rhombus;whiteSpace=wrap;html=1;" vertex="1" parent="coLWPYUIXOKxR95cU1zw-78">
          <mxGeometry x="189" y="930" width="190" height="80" as="geometry" />
        </mxCell>
        <mxCell id="coLWPYUIXOKxR95cU1zw-32" style="edgeStyle=orthogonalEdgeStyle;rounded=0;orthogonalLoop=1;jettySize=auto;html=1;entryX=0.5;entryY=0;entryDx=0;entryDy=0;" edge="1" parent="coLWPYUIXOKxR95cU1zw-78" source="coLWPYUIXOKxR95cU1zw-29" target="coLWPYUIXOKxR95cU1zw-31">
          <mxGeometry relative="1" as="geometry" />
        </mxCell>
        <mxCell id="coLWPYUIXOKxR95cU1zw-36" value="No" style="text;html=1;align=center;verticalAlign=middle;resizable=0;points=[];autosize=1;strokeColor=none;fillColor=none;" vertex="1" parent="coLWPYUIXOKxR95cU1zw-78">
          <mxGeometry x="242" y="1008" width="40" height="30" as="geometry" />
        </mxCell>
        <mxCell id="coLWPYUIXOKxR95cU1zw-43" style="edgeStyle=orthogonalEdgeStyle;rounded=0;orthogonalLoop=1;jettySize=auto;html=1;" edge="1" parent="coLWPYUIXOKxR95cU1zw-78" source="coLWPYUIXOKxR95cU1zw-37">
          <mxGeometry relative="1" as="geometry">
            <mxPoint x="290" y="1040" as="targetPoint" />
          </mxGeometry>
        </mxCell>
        <mxCell id="coLWPYUIXOKxR95cU1zw-37" value="Do you want to turnAround?" style="rhombus;whiteSpace=wrap;html=1;" vertex="1" parent="coLWPYUIXOKxR95cU1zw-78">
          <mxGeometry x="445" y="1000" width="150" height="80" as="geometry" />
        </mxCell>
        <mxCell id="coLWPYUIXOKxR95cU1zw-72" value="" style="edgeStyle=orthogonalEdgeStyle;rounded=0;orthogonalLoop=1;jettySize=auto;html=1;" edge="1" parent="coLWPYUIXOKxR95cU1zw-78" source="coLWPYUIXOKxR95cU1zw-25" target="coLWPYUIXOKxR95cU1zw-34">
          <mxGeometry relative="1" as="geometry" />
        </mxCell>
        <mxCell id="coLWPYUIXOKxR95cU1zw-44" value="No" style="text;html=1;align=center;verticalAlign=middle;resizable=0;points=[];autosize=1;strokeColor=none;fillColor=none;" vertex="1" parent="coLWPYUIXOKxR95cU1zw-78">
          <mxGeometry x="405" y="1010" width="40" height="30" as="geometry" />
        </mxCell>
        <mxCell id="coLWPYUIXOKxR95cU1zw-45" value="Enter your input" style="rounded=0;whiteSpace=wrap;html=1;" vertex="1" parent="coLWPYUIXOKxR95cU1zw-78">
          <mxGeometry x="460" y="1280" width="120" height="60" as="geometry" />
        </mxCell>
        <mxCell id="coLWPYUIXOKxR95cU1zw-41" style="edgeStyle=orthogonalEdgeStyle;rounded=0;orthogonalLoop=1;jettySize=auto;html=1;entryX=0.5;entryY=0;entryDx=0;entryDy=0;" edge="1" parent="coLWPYUIXOKxR95cU1zw-78" source="coLWPYUIXOKxR95cU1zw-34" target="coLWPYUIXOKxR95cU1zw-37">
          <mxGeometry relative="1" as="geometry" />
        </mxCell>
        <mxCell id="coLWPYUIXOKxR95cU1zw-50" style="edgeStyle=orthogonalEdgeStyle;rounded=0;orthogonalLoop=1;jettySize=auto;html=1;entryX=0.5;entryY=0;entryDx=0;entryDy=0;" edge="1" parent="coLWPYUIXOKxR95cU1zw-78" source="coLWPYUIXOKxR95cU1zw-37" target="coLWPYUIXOKxR95cU1zw-45">
          <mxGeometry relative="1" as="geometry" />
        </mxCell>
        <mxCell id="coLWPYUIXOKxR95cU1zw-46" value="Output==&#39;R&#39;" style="rounded=0;whiteSpace=wrap;html=1;" vertex="1" parent="coLWPYUIXOKxR95cU1zw-78">
          <mxGeometry x="405" y="1400" width="95" height="50" as="geometry" />
        </mxCell>
        <mxCell id="coLWPYUIXOKxR95cU1zw-48" style="edgeStyle=orthogonalEdgeStyle;rounded=0;orthogonalLoop=1;jettySize=auto;html=1;entryX=0.5;entryY=0;entryDx=0;entryDy=0;" edge="1" parent="coLWPYUIXOKxR95cU1zw-78" source="coLWPYUIXOKxR95cU1zw-45" target="coLWPYUIXOKxR95cU1zw-46">
          <mxGeometry relative="1" as="geometry" />
        </mxCell>
        <mxCell id="coLWPYUIXOKxR95cU1zw-54" style="edgeStyle=orthogonalEdgeStyle;rounded=0;orthogonalLoop=1;jettySize=auto;html=1;" edge="1" parent="coLWPYUIXOKxR95cU1zw-78" source="coLWPYUIXOKxR95cU1zw-47">
          <mxGeometry relative="1" as="geometry">
            <mxPoint x="440" y="1520" as="targetPoint" />
            <Array as="points">
              <mxPoint x="587" y="1520" />
            </Array>
          </mxGeometry>
        </mxCell>
        <mxCell id="coLWPYUIXOKxR95cU1zw-47" value="Output==&#39;L&#39;" style="rounded=0;whiteSpace=wrap;html=1;" vertex="1" parent="coLWPYUIXOKxR95cU1zw-78">
          <mxGeometry x="540" y="1400" width="95" height="50" as="geometry" />
        </mxCell>
        <mxCell id="coLWPYUIXOKxR95cU1zw-58" style="edgeStyle=orthogonalEdgeStyle;rounded=0;orthogonalLoop=1;jettySize=auto;html=1;" edge="1" parent="coLWPYUIXOKxR95cU1zw-78" source="coLWPYUIXOKxR95cU1zw-52">
          <mxGeometry relative="1" as="geometry">
            <mxPoint x="437.0000000000002" y="1650" as="targetPoint" />
            <Array as="points">
              <mxPoint x="320" y="1580" />
              <mxPoint x="320" y="1640" />
              <mxPoint x="437" y="1640" />
            </Array>
          </mxGeometry>
        </mxCell>
        <mxCell id="coLWPYUIXOKxR95cU1zw-52" value="is batteryHours == 0?" style="rhombus;whiteSpace=wrap;html=1;" vertex="1" parent="coLWPYUIXOKxR95cU1zw-78">
          <mxGeometry x="357" y="1540" width="160" height="80" as="geometry" />
        </mxCell>
        <mxCell id="coLWPYUIXOKxR95cU1zw-49" style="edgeStyle=orthogonalEdgeStyle;rounded=0;orthogonalLoop=1;jettySize=auto;html=1;entryX=0.5;entryY=0;entryDx=0;entryDy=0;" edge="1" parent="coLWPYUIXOKxR95cU1zw-78" source="coLWPYUIXOKxR95cU1zw-45" target="coLWPYUIXOKxR95cU1zw-47">
          <mxGeometry relative="1" as="geometry" />
        </mxCell>
        <mxCell id="coLWPYUIXOKxR95cU1zw-55" value="&lt;div&gt;Have you reached&lt;/div&gt;&lt;div&gt;back to your starting point?&lt;/div&gt;" style="rhombus;whiteSpace=wrap;html=1;" vertex="1" parent="coLWPYUIXOKxR95cU1zw-78">
          <mxGeometry x="327" y="1674" width="220" height="100" as="geometry" />
        </mxCell>
        <mxCell id="coLWPYUIXOKxR95cU1zw-53" style="edgeStyle=orthogonalEdgeStyle;rounded=0;orthogonalLoop=1;jettySize=auto;html=1;entryX=0.5;entryY=0;entryDx=0;entryDy=0;" edge="1" parent="coLWPYUIXOKxR95cU1zw-78" source="coLWPYUIXOKxR95cU1zw-46" target="coLWPYUIXOKxR95cU1zw-52">
          <mxGeometry relative="1" as="geometry" />
        </mxCell>
        <mxCell id="coLWPYUIXOKxR95cU1zw-56" style="edgeStyle=orthogonalEdgeStyle;rounded=0;orthogonalLoop=1;jettySize=auto;html=1;entryX=0.5;entryY=0;entryDx=0;entryDy=0;" edge="1" parent="coLWPYUIXOKxR95cU1zw-78" source="coLWPYUIXOKxR95cU1zw-52" target="coLWPYUIXOKxR95cU1zw-55">
          <mxGeometry relative="1" as="geometry" />
        </mxCell>
        <mxCell id="coLWPYUIXOKxR95cU1zw-66" style="edgeStyle=orthogonalEdgeStyle;rounded=0;orthogonalLoop=1;jettySize=auto;html=1;entryX=0.5;entryY=0;entryDx=0;entryDy=0;" edge="1" parent="coLWPYUIXOKxR95cU1zw-78" source="coLWPYUIXOKxR95cU1zw-59" target="coLWPYUIXOKxR95cU1zw-3">
          <mxGeometry relative="1" as="geometry" />
        </mxCell>
        <mxCell id="coLWPYUIXOKxR95cU1zw-59" value="Congratulations, you won the game!" style="rounded=0;whiteSpace=wrap;html=1;" vertex="1" parent="coLWPYUIXOKxR95cU1zw-78">
          <mxGeometry x="377" y="1840" width="120" height="60" as="geometry" />
        </mxCell>
        <mxCell id="coLWPYUIXOKxR95cU1zw-65" style="edgeStyle=orthogonalEdgeStyle;rounded=0;orthogonalLoop=1;jettySize=auto;html=1;entryX=0.5;entryY=0;entryDx=0;entryDy=0;" edge="1" parent="coLWPYUIXOKxR95cU1zw-78" source="coLWPYUIXOKxR95cU1zw-60" target="coLWPYUIXOKxR95cU1zw-3">
          <mxGeometry relative="1" as="geometry" />
        </mxCell>
        <mxCell id="coLWPYUIXOKxR95cU1zw-60" value="Sorry, you lost the game!" style="rounded=0;whiteSpace=wrap;html=1;" vertex="1" parent="coLWPYUIXOKxR95cU1zw-78">
          <mxGeometry x="127" y="1840" width="120" height="60" as="geometry" />
        </mxCell>
        <mxCell id="coLWPYUIXOKxR95cU1zw-63" value="Yes" style="text;html=1;align=center;verticalAlign=middle;resizable=0;points=[];autosize=1;strokeColor=none;fillColor=none;" vertex="1" parent="coLWPYUIXOKxR95cU1zw-78">
          <mxGeometry x="435" y="1772" width="40" height="30" as="geometry" />
        </mxCell>
        <mxCell id="coLWPYUIXOKxR95cU1zw-64" value="No" style="text;html=1;align=center;verticalAlign=middle;resizable=0;points=[];autosize=1;strokeColor=none;fillColor=none;" vertex="1" parent="coLWPYUIXOKxR95cU1zw-78">
          <mxGeometry x="287" y="1724" width="40" height="30" as="geometry" />
        </mxCell>
        <mxCell id="coLWPYUIXOKxR95cU1zw-73" value="Yes" style="text;html=1;align=center;verticalAlign=middle;resizable=0;points=[];autosize=1;strokeColor=none;fillColor=none;" vertex="1" parent="coLWPYUIXOKxR95cU1zw-78">
          <mxGeometry x="320" y="1555" width="40" height="30" as="geometry" />
        </mxCell>
        <mxCell id="coLWPYUIXOKxR95cU1zw-74" value="No" style="text;html=1;align=center;verticalAlign=middle;resizable=0;points=[];autosize=1;strokeColor=none;fillColor=none;" vertex="1" parent="coLWPYUIXOKxR95cU1zw-78">
          <mxGeometry x="435" y="1620" width="40" height="30" as="geometry" />
        </mxCell>
        <mxCell id="coLWPYUIXOKxR95cU1zw-75" value="Yes" style="text;html=1;align=center;verticalAlign=middle;resizable=0;points=[];autosize=1;strokeColor=none;fillColor=none;" vertex="1" parent="coLWPYUIXOKxR95cU1zw-78">
          <mxGeometry x="377" y="941" width="40" height="30" as="geometry" />
        </mxCell>
        <mxCell id="coLWPYUIXOKxR95cU1zw-76" value="Yes" style="text;html=1;align=center;verticalAlign=middle;resizable=0;points=[];autosize=1;strokeColor=none;fillColor=none;" vertex="1" parent="coLWPYUIXOKxR95cU1zw-78">
          <mxGeometry x="518" y="1079" width="40" height="30" as="geometry" />
        </mxCell>
        <mxCell id="coLWPYUIXOKxR95cU1zw-62" style="edgeStyle=orthogonalEdgeStyle;rounded=0;orthogonalLoop=1;jettySize=auto;html=1;entryX=0.5;entryY=0;entryDx=0;entryDy=0;" edge="1" parent="coLWPYUIXOKxR95cU1zw-78" source="coLWPYUIXOKxR95cU1zw-55" target="coLWPYUIXOKxR95cU1zw-59">
          <mxGeometry relative="1" as="geometry" />
        </mxCell>
        <mxCell id="coLWPYUIXOKxR95cU1zw-61" style="edgeStyle=orthogonalEdgeStyle;rounded=0;orthogonalLoop=1;jettySize=auto;html=1;entryX=0.5;entryY=0;entryDx=0;entryDy=0;" edge="1" parent="coLWPYUIXOKxR95cU1zw-78" source="coLWPYUIXOKxR95cU1zw-55" target="coLWPYUIXOKxR95cU1zw-60">
          <mxGeometry relative="1" as="geometry" />
        </mxCell>
      </root>
    </mxGraphModel>
  </diagram>
</mxfile>
